<svg xmlns="http://www.w3.org/2000/svg" width="1280" height="800" viewBox="0 0 1280 800" font-family="system-ui, -apple-system, Segoe UI, Roboto, sans-serif">
  <rect width="1280" height="800" fill="#0f1419"/>
  <!-- sidebar -->
  <rect width="240" height="800" fill="#161b22"/>
  <rect x="18" y="22" width="30" height="30" rx="9" fill="#4f9cf933"/>
  <path d="M33 30 l-7 3 v5 c0 4 3 6 7 8 4-2 7-4 7-8 v-5 z" fill="none" stroke="#4f9cf9" stroke-width="2"/>
  <text x="58" y="36" fill="#e6edf3" font-size="16" font-weight="700">Capybara_AI</text>
  <text x="58" y="50" fill="#6b7785" font-size="10">Admin-Konsole</text>
  <rect x="8" y="78" width="224" height="38" rx="8" fill="#4f9cf922"/>
  <text x="44" y="102" fill="#4f9cf9" font-size="14" font-weight="600">Dashboard</text>
  <text x="44" y="146" fill="#9aa7b4" font-size="14">Benutzer</text>
  <text x="44" y="186" fill="#9aa7b4" font-size="14">Dokumente</text>
  <text x="44" y="226" fill="#9aa7b4" font-size="14">Compliance</text>
  <text x="44" y="266" fill="#9aa7b4" font-size="14">SSO</text>
  <text x="44" y="306" fill="#9aa7b4" font-size="14">API-Keys</text>
  <text x="44" y="346" fill="#9aa7b4" font-size="14">Webhooks</text>
  <text x="18" y="780" fill="#6b7785" font-size="11">v1.0.0 · Made in Germany 🇩🇪</text>
  <!-- topbar -->
  <line x1="240" y1="64" x2="1280" y2="64" stroke="#2a3441"/>
  <text x="272" y="40" fill="#e6edf3" font-size="19" font-weight="650">Dashboard</text>
  <rect x="1210" y="14" width="38" height="38" rx="10" fill="#161b22" stroke="#2a3441"/>
  <circle cx="1229" cy="33" r="6" fill="none" stroke="#9aa7b4" stroke-width="2"/>
  <!-- stat cards -->
  <g>
    <rect x="272" y="92" width="228" height="104" rx="12" fill="#1a212b" stroke="#2a3441"/>
    <text x="292" y="124" fill="#9aa7b4" font-size="12" font-weight="600">BENUTZER</text>
    <text x="292" y="162" fill="#e6edf3" font-size="30" font-weight="700">128</text>
    <circle cx="298" cy="182" r="4" fill="#3fb950"/><text x="310" y="186" fill="#6b7785" font-size="12">112 aktiv · 9 eingeladen</text>
  </g>
  <g>
    <rect x="516" y="92" width="228" height="104" rx="12" fill="#1a212b" stroke="#2a3441"/>
    <text x="536" y="124" fill="#9aa7b4" font-size="12" font-weight="600">DOKUMENTE</text>
    <text x="536" y="162" fill="#e6edf3" font-size="30" font-weight="700">3 471</text>
    <text x="536" y="186" fill="#6b7785" font-size="12">8 942 Vektoren</text>
  </g>
  <g>
    <rect x="760" y="92" width="228" height="104" rx="12" fill="#1a212b" stroke="#2a3441"/>
    <text x="780" y="124" fill="#9aa7b4" font-size="12" font-weight="600">KI-ABFRAGEN (30T)</text>
    <text x="780" y="162" fill="#e6edf3" font-size="30" font-weight="700">14 203</text>
    <text x="780" y="186" fill="#6b7785" font-size="12">6 870 LLM-Aufrufe</text>
  </g>
  <g>
    <rect x="1004" y="92" width="244" height="104" rx="12" fill="#1a212b" stroke="#2a3441"/>
    <text x="1024" y="124" fill="#9aa7b4" font-size="12" font-weight="600">AUFSICHT OFFEN</text>
    <text x="1024" y="162" fill="#e6edf3" font-size="30" font-weight="700">2</text>
    <circle cx="1030" cy="182" r="4" fill="#d29922"/><text x="1042" y="186" fill="#6b7785" font-size="12">wartet auf Freigabe</text>
  </g>
  <!-- sparkline card -->
  <rect x="272" y="212" width="476" height="240" rx="12" fill="#1a212b" stroke="#2a3441"/>
  <text x="292" y="244" fill="#9aa7b4" font-size="12" font-weight="600">KI-ABFRAGEN ÜBER ZEIT (30 TAGE)</text>
  <path d="M292 410 L330 380 L368 392 L406 350 L444 360 L482 318 L520 330 L558 286 L596 300 L634 262 L672 250 L710 224 L726 234 L728 432 L292 432 Z" fill="#4f9cf922"/>
  <path d="M292 410 L330 380 L368 392 L406 350 L444 360 L482 318 L520 330 L558 286 L596 300 L634 262 L672 250 L710 224 L726 234" fill="none" stroke="#4f9cf9" stroke-width="2.5"/>
  <!-- donut card -->
  <rect x="764" y="212" width="484" height="240" rx="12" fill="#1a212b" stroke="#2a3441"/>
  <text x="784" y="244" fill="#9aa7b4" font-size="12" font-weight="600">BENUTZERSTRUKTUR</text>
  <g transform="translate(862,346)">
    <circle r="58" fill="none" stroke="#1c232c" stroke-width="20"/>
    <circle r="58" fill="none" stroke="#3fb950" stroke-width="20" stroke-dasharray="255 110" transform="rotate(-90)"/>
    <circle r="58" fill="none" stroke="#4f9cf9" stroke-width="20" stroke-dasharray="40 325" stroke-dashoffset="-255" transform="rotate(-90)"/>
    <text y="0" text-anchor="middle" fill="#e6edf3" font-size="24" font-weight="700">128</text>
    <text y="20" text-anchor="middle" fill="#6b7785" font-size="11">gesamt</text>
  </g>
  <rect x="980" y="300" width="10" height="10" rx="3" fill="#3fb950"/><text x="998" y="310" fill="#e6edf3" font-size="13">Aktiv — 112</text>
  <rect x="980" y="330" width="10" height="10" rx="3" fill="#4f9cf9"/><text x="998" y="340" fill="#e6edf3" font-size="13">Eingeladen — 9</text>
  <rect x="980" y="360" width="10" height="10" rx="3" fill="#f85149"/><text x="998" y="370" fill="#e6edf3" font-size="13">Deaktiviert — 7</text>
  <!-- bars + status -->
  <rect x="272" y="468" width="476" height="216" rx="12" fill="#1a212b" stroke="#2a3441"/>
  <text x="292" y="500" fill="#9aa7b4" font-size="12" font-weight="600">DOKUMENTE NACH KLASSIFIZIERUNG</text>
  <text x="292" y="536" fill="#9aa7b4" font-size="13">PUBLIC</text><rect x="392" y="528" width="300" height="10" rx="5" fill="#1c232c"/><rect x="392" y="528" width="120" height="10" rx="5" fill="#4f9cf9"/>
  <text x="292" y="572" fill="#9aa7b4" font-size="13">INTERNAL</text><rect x="392" y="564" width="300" height="10" rx="5" fill="#1c232c"/><rect x="392" y="564" width="300" height="10" rx="5" fill="#4f9cf9"/>
  <text x="292" y="608" fill="#9aa7b4" font-size="13">CONFIDENTIAL</text><rect x="392" y="600" width="300" height="10" rx="5" fill="#1c232c"/><rect x="392" y="600" width="190" height="10" rx="5" fill="#4f9cf9"/>
  <text x="292" y="644" fill="#9aa7b4" font-size="13">SECRET</text><rect x="392" y="636" width="300" height="10" rx="5" fill="#1c232c"/><rect x="392" y="636" width="60" height="10" rx="5" fill="#4f9cf9"/>
  <rect x="764" y="468" width="484" height="216" rx="12" fill="#1a212b" stroke="#2a3441"/>
  <text x="784" y="500" fill="#9aa7b4" font-size="12" font-weight="600">SYSTEMSTATUS</text>
  <circle cx="790" cy="532" r="5" fill="#3fb950"/><text x="806" y="537" fill="#e6edf3" font-size="13">Datenbank &amp; RLS</text><text x="1228" y="537" text-anchor="end" fill="#3fb950" font-size="12">betriebsbereit</text>
  <circle cx="790" cy="568" r="5" fill="#3fb950"/><text x="806" y="573" fill="#e6edf3" font-size="13">Vektorsuche (pgvector)</text><text x="1228" y="573" text-anchor="end" fill="#6b7785" font-size="12">8 942 Zeilen</text>
  <circle cx="790" cy="604" r="5" fill="#d29922"/><text x="806" y="609" fill="#e6edf3" font-size="13">KI-Aufsicht (EU AI Act)</text><text x="1228" y="609" text-anchor="end" fill="#d29922" font-size="12">2 offen</text>
  <circle cx="790" cy="640" r="5" fill="#3fb950"/><text x="806" y="645" fill="#e6edf3" font-size="13">DSGVO-Löschungen</text><text x="1228" y="645" text-anchor="end" fill="#6b7785" font-size="12">31 ausgeführt</text>
  <text x="640" y="762" text-anchor="middle" fill="#3a4450" font-size="12">Vorschau-Platzhalter · Dashboard · 1280×800</text>
</svg>
